<?xml version="1.0" encoding="utf-8"?>
<!-- Generator: Adobe Illustrator 21.0.2, SVG Export Plug-In . SVG Version: 6.00 Build 0)  -->
<svg version="1.1" id="Слой_2" xmlns="http://www.w3.org/2000/svg" xmlns:xlink="http://www.w3.org/1999/xlink" x="0px" y="0px"
	 viewBox="0 0 171.3 164.4" style="enable-background:new 0 0 171.3 164.4;" xml:space="preserve">
<style type="text/css">
	.st0{fill:#444B54;}
	.st1{fill:#7FBEE8;}
</style>
<g>
	<path class="st0" d="M44.1,31.2v-1.7c0-8-6.5-14.6-14.6-14.6c-8,0-14.6,6.5-14.6,14.6v84.9c0,10.3,10.6,30.5,11.8,32.8
		c0.5,1,1.6,1.7,2.8,1.7c1.2,0,2.2-0.6,2.8-1.7c1.2-2.3,11.8-22.5,11.8-32.8V37.4c4.2,0.4,7.4,4,7.4,8.3v29.8c0,1.7,1.4,3.1,3.1,3.1
		c1.7,0,3.1-1.4,3.1-3.1V45.7C57.8,38,51.7,31.6,44.1,31.2z M37.8,114.3c0,5.7-4.7,16.9-8.3,24.3c-3.6-7.5-8.3-18.7-8.3-24.3V29.4
		c0-4.6,3.7-8.3,8.3-8.3c4.6,0,8.3,3.7,8.3,8.3V114.3z"/>
	<path class="st0" d="M55.1,149.4c-1.7,0-3.1-1.4-3.1-3.1c0-1.7,1.4-3.1,3.1-3.1h0c1.7,0,3.1,1.4,3.1,3.1
		C58.2,148,56.8,149.4,55.1,149.4z"/>
	<path class="st0" d="M87.6,150.1c-5.4,0-7.1-3.8-8.1-5.8c-0.1-0.2-0.2-0.5-0.4-0.8c-0.8,0.7-1.9,1.9-2.5,2.6
		c-0.7,0.8-1.3,1.5-1.9,2.1c-1.3,1.1-3.3,1-4.4-0.3c-1.1-1.3-1-3.3,0.3-4.4c0.3-0.3,0.9-0.9,1.4-1.5c2.1-2.4,4.4-5.1,7.3-5.1
		c3.7,0,5.1,3,5.9,4.7c0.9,1.9,1.1,2.2,2.4,2.2c1.1,0,1.7-1.7,2.7-5.2c1.1-3.8,2.6-9.1,7.9-9.1c5.1,0,7.7,4.8,9.9,8.6
		c1.5,2.6,3.1,5.5,4.6,5.5c2.2,0,3-1.4,3.1-1.4c0.8-1.5,2.8-2,4.3-1.2c1.5,0.8,2,2.8,1.2,4.3c-1,1.7-3.8,4.6-8.5,4.6
		c-5.2,0-7.9-4.8-10.1-8.7c-1.4-2.4-3.1-5.4-4.5-5.4c-0.1,0-0.1,0-0.1,0c-0.6,0.3-1.4,3.2-1.8,4.5C95.2,144.2,93.6,150.1,87.6,150.1
		z M79.7,143.1"/>
	<path class="st1" d="M34.7,101.9c-1.7,0-3.1-1.4-3.1-3.1V36.6c0-1.7,1.4-3.1,3.1-3.1c1.7,0,3.1,1.4,3.1,3.1v62.2
		C37.9,100.5,36.5,101.9,34.7,101.9z"/>
	<path class="st1" d="M127.6,68.3H75.7c-1.7,0-3.1-1.4-3.1-3.1c0-1.7,1.4-3.1,3.1-3.1h51.9c1.7,0,3.1,1.4,3.1,3.1
		C130.7,66.9,129.3,68.3,127.6,68.3z"/>
	<path class="st1" d="M127.6,85.9H75.7c-1.7,0-3.1-1.4-3.1-3.1c0-1.7,1.4-3.1,3.1-3.1h51.9c1.7,0,3.1,1.4,3.1,3.1
		C130.7,84.5,129.3,85.9,127.6,85.9z"/>
	<path class="st1" d="M109.8,103.5H75.7c-1.7,0-3.1-1.4-3.1-3.1s1.4-3.1,3.1-3.1h34.1c1.7,0,3.1,1.4,3.1,3.1
		S111.5,103.5,109.8,103.5z"/>
	<path class="st1" d="M127.6,103.5c-1.7,0-3.1-1.4-3.1-3.1s1.4-3.1,3.1-3.1h0c1.7,0,3.1,1.4,3.1,3.1S129.3,103.5,127.6,103.5z"/>
	<path class="st1" d="M139.5,149.8c-1.7,0-3.1-1.4-3.1-3.1c0-1.7,1.4-3.1,3.1-3.1c4.9,0,10.6-2.1,10.6-8.2V57.9
		c0-1.7,1.4-3.1,3.1-3.1c1.7,0,3.1,1.4,3.1,3.1v77.5C156.3,143.9,149.4,149.8,139.5,149.8z"/>
	<path class="st1" d="M128.4,14.4H66.2c-1.7,0-3.1,1.4-3.1,3.1c0,1.7,1.4,3.1,3.1,3.1h60.4v8.9c0,8.5,6.9,15.4,15.4,15.4h10.3
		c0.2,0,0.3,0,0.5,0c0.2,0,0.3,0,0.5,0c1.7,0,3.1-1.4,3.1-3.1C156.3,26.7,143.8,14.4,128.4,14.4z M132.8,29.5V21
		c8.8,1.8,15.7,8.9,17.1,17.6H142C136.9,38.7,132.8,34.6,132.8,29.5z"/>
</g>
</svg>
